# xmcd CD database file
#
# Track frame offsets:
#	182
#	31937
#	58635
#	78655
#	93810
#	110625
#	133132
#	159170
#	196717
#	211625
#	223415
#	249767
#	273587
#	286327
#	299587
#
# Disc length: 4143 seconds
#
# Revision: 2
# Processed by: cddbd v1.5.1PL2 Copyright (c) Steve Scherf et al.
# Submitted via: CDex 1.51
#
DISCID=da102d0f
DTITLE=Various Artist - Mississippi Blues - New Orleans to Chicago (3)
DYEAR=1996
DGENRE=Blues
TTITLE0=My home is in the delta - the butler twins
TTITLE1=My baby's coming home - the butler twins
TTITLE2=Things Can't be the same - doc terry
TTITLE3=Doctor boogie - doc terry
TTITLE4=Who do blues - doc terry
TTITLE5=Pick Up The Pieces - Eddie Kirkland
TTITLE6=I'm A Stranger - Eddie Kirkland
TTITLE7=I Don't Need No Woman - Pete Allen
TTITLE8=Fishing In My Pond - Jimmy Rogers
TTITLE9=Crazy Woman Blues - Jimmy Rogers
TTITLE10=Death Of Ellesse - Louisiana Red
TTITLE11=Chicken Licken - Louisiana Red
TTITLE12=Rolling' and Tumblin' - john lee granderson
TTITLE13=Lonesome blues - john lee granderson
TTITLE14=New guinea blues - blind will dukes
EXTD=YEAR: 1996
EXTT0=
EXTT1=
EXTT2=
EXTT3=
EXTT4=
EXTT5=
EXTT6=
EXTT7=
EXTT8=
EXTT9=
EXTT10=
EXTT11=
EXTT12=
EXTT13=
EXTT14=
PLAYORDER=
